<mxfile host="app.diagrams.net" modified="2024-01-10T11:23:22.744Z" agent="Mozilla/5.0 (Windows NT 10.0; Win64; x64) AppleWebKit/537.36 (KHTML, like Gecko) Chrome/120.0.0.0 Safari/537.36 OPR/106.0.0.0" etag="olUSnO9s0Ho4SnhaEpST" version="22.1.18" type="device">
  <diagram name="Page-1" id="gf1xYpj-7bpnOPS9GNN-">
    <mxGraphModel dx="1061" dy="540" grid="0" gridSize="10" guides="1" tooltips="1" connect="1" arrows="1" fold="1" page="1" pageScale="1" pageWidth="850" pageHeight="1100" background="#000000" math="0" shadow="0">
      <root>
        <mxCell id="0" />
        <mxCell id="1" parent="0" />
        <mxCell id="uej0lvWrv-siCIMcTND6-4" value="&lt;font style=&quot;font-size: 17px;&quot;&gt;DaysTally&lt;/font&gt;" style="rounded=0;whiteSpace=wrap;html=1;fillColor=none;strokeColor=#FFFFFF;labelBackgroundColor=none;fontColor=#FFFFFF;" vertex="1" parent="1">
          <mxGeometry x="173" y="316" width="150" height="68" as="geometry" />
        </mxCell>
        <mxCell id="uej0lvWrv-siCIMcTND6-5" value="&lt;font style=&quot;font-size: 17px;&quot;&gt;User&lt;/font&gt;" style="rounded=0;whiteSpace=wrap;html=1;fillColor=none;strokeColor=#FFFFFF;labelBackgroundColor=none;fontColor=#FFFFFF;" vertex="1" parent="1">
          <mxGeometry x="148" y="130" width="150" height="68" as="geometry" />
        </mxCell>
        <mxCell id="uej0lvWrv-siCIMcTND6-6" value="&lt;font style=&quot;font-size: 17px;&quot;&gt;Leave&lt;/font&gt;" style="rounded=0;whiteSpace=wrap;html=1;fillColor=none;strokeColor=#FFFFFF;labelBackgroundColor=none;fontColor=#FFFFFF;" vertex="1" parent="1">
          <mxGeometry x="470" y="143" width="150" height="68" as="geometry" />
        </mxCell>
        <mxCell id="uej0lvWrv-siCIMcTND6-7" value="&lt;font style=&quot;font-size: 17px;&quot;&gt;PublicHoliday&lt;br&gt;&lt;/font&gt;" style="rounded=0;whiteSpace=wrap;html=1;fillColor=none;strokeColor=#FFFFFF;labelBackgroundColor=none;fontColor=#FFFFFF;" vertex="1" parent="1">
          <mxGeometry x="505" y="324" width="150" height="68" as="geometry" />
        </mxCell>
        <mxCell id="uej0lvWrv-siCIMcTND6-9" value="" style="endArrow=none;html=1;rounded=0;entryX=0.5;entryY=1;entryDx=0;entryDy=0;exitX=0.5;exitY=0;exitDx=0;exitDy=0;fillColor=#f5f5f5;strokeColor=#666666;" edge="1" parent="1" source="uej0lvWrv-siCIMcTND6-4" target="uej0lvWrv-siCIMcTND6-5">
          <mxGeometry width="50" height="50" relative="1" as="geometry">
            <mxPoint x="443" y="351" as="sourcePoint" />
            <mxPoint x="493" y="301" as="targetPoint" />
          </mxGeometry>
        </mxCell>
        <mxCell id="uej0lvWrv-siCIMcTND6-52" value="0.&lt;font&gt;.&lt;/font&gt;N" style="edgeLabel;html=1;align=center;verticalAlign=middle;resizable=0;points=[];labelBackgroundColor=none;fontColor=#FFFFFF;" vertex="1" connectable="0" parent="uej0lvWrv-siCIMcTND6-9">
          <mxGeometry x="0.8154" relative="1" as="geometry">
            <mxPoint x="-14" y="2" as="offset" />
          </mxGeometry>
        </mxCell>
        <mxCell id="uej0lvWrv-siCIMcTND6-11" value="" style="endArrow=none;html=1;rounded=0;entryX=0.5;entryY=1;entryDx=0;entryDy=0;exitX=0.5;exitY=0;exitDx=0;exitDy=0;fillColor=#f5f5f5;strokeColor=#666666;" edge="1" parent="1" source="uej0lvWrv-siCIMcTND6-4" target="uej0lvWrv-siCIMcTND6-6">
          <mxGeometry width="50" height="50" relative="1" as="geometry">
            <mxPoint x="401" y="305" as="sourcePoint" />
            <mxPoint x="376" y="187" as="targetPoint" />
          </mxGeometry>
        </mxCell>
        <object label="Name" id="uej0lvWrv-siCIMcTND6-22">
          <mxCell style="ellipse;whiteSpace=wrap;html=1;fillColor=none;strokeColor=#FFFFFF;fontColor=#FFFFFF;" vertex="1" parent="1">
            <mxGeometry x="44" y="189" width="94" height="33" as="geometry" />
          </mxCell>
        </object>
        <object label="Email" id="uej0lvWrv-siCIMcTND6-36">
          <mxCell style="ellipse;whiteSpace=wrap;html=1;fillColor=none;strokeColor=#FFFFFF;fontColor=#FFFFFF;" vertex="1" parent="1">
            <mxGeometry x="37" y="139" width="94" height="33" as="geometry" />
          </mxCell>
        </object>
        <object label="PhoneNumber" id="uej0lvWrv-siCIMcTND6-37">
          <mxCell style="ellipse;whiteSpace=wrap;html=1;fillColor=none;strokeColor=#FFFFFF;fontColor=#FFFFFF;" vertex="1" parent="1">
            <mxGeometry x="148" y="44" width="94" height="33" as="geometry" />
          </mxCell>
        </object>
        <object label="Password" id="uej0lvWrv-siCIMcTND6-38">
          <mxCell style="ellipse;whiteSpace=wrap;html=1;fillColor=none;strokeColor=#FFFFFF;fontColor=#FFFFFF;" vertex="1" parent="1">
            <mxGeometry x="54" y="77" width="94" height="33" as="geometry" />
          </mxCell>
        </object>
        <object label="Team" id="uej0lvWrv-siCIMcTND6-40">
          <mxCell style="ellipse;whiteSpace=wrap;html=1;fillColor=none;strokeColor=#FFFFFF;fontColor=#FFFFFF;" vertex="1" parent="1">
            <mxGeometry x="264" y="68" width="94" height="33" as="geometry" />
          </mxCell>
        </object>
        <object label="Amount" id="uej0lvWrv-siCIMcTND6-41">
          <mxCell style="ellipse;whiteSpace=wrap;html=1;fillColor=none;strokeColor=#FFFFFF;fontColor=#FFFFFF;" vertex="1" parent="1">
            <mxGeometry x="44" y="333" width="94" height="33" as="geometry" />
          </mxCell>
        </object>
        <object label="Timestamp" id="uej0lvWrv-siCIMcTND6-42">
          <mxCell style="ellipse;whiteSpace=wrap;html=1;fillColor=none;strokeColor=#FFFFFF;fontColor=#FFFFFF;" vertex="1" parent="1">
            <mxGeometry x="79" y="401" width="94" height="33" as="geometry" />
          </mxCell>
        </object>
        <object label="Action" id="uej0lvWrv-siCIMcTND6-43">
          <mxCell style="ellipse;whiteSpace=wrap;html=1;fillColor=none;strokeColor=#FFFFFF;fontColor=#FFFFFF;" vertex="1" parent="1">
            <mxGeometry x="199" y="421" width="94" height="33" as="geometry" />
          </mxCell>
        </object>
        <object label="EndDate" id="uej0lvWrv-siCIMcTND6-44">
          <mxCell style="ellipse;whiteSpace=wrap;html=1;fillColor=none;strokeColor=#FFFFFF;fontColor=#FFFFFF;" vertex="1" parent="1">
            <mxGeometry x="603" y="79" width="94" height="33" as="geometry" />
          </mxCell>
        </object>
        <object label="StartDate" id="uej0lvWrv-siCIMcTND6-45">
          <mxCell style="ellipse;whiteSpace=wrap;html=1;fillColor=none;strokeColor=#FFFFFF;fontColor=#FFFFFF;" vertex="1" parent="1">
            <mxGeometry x="477" y="79" width="94" height="33" as="geometry" />
          </mxCell>
        </object>
        <object label="Status" id="uej0lvWrv-siCIMcTND6-46">
          <mxCell style="ellipse;whiteSpace=wrap;html=1;fillColor=none;strokeColor=#FFFFFF;fontColor=#FFFFFF;" vertex="1" parent="1">
            <mxGeometry x="644" y="215" width="94" height="33" as="geometry" />
          </mxCell>
        </object>
        <object label="Description" id="uej0lvWrv-siCIMcTND6-47">
          <mxCell style="ellipse;whiteSpace=wrap;html=1;fillColor=none;strokeColor=#FFFFFF;fontColor=#FFFFFF;" vertex="1" parent="1">
            <mxGeometry x="657" y="147.5" width="94" height="33" as="geometry" />
          </mxCell>
        </object>
        <object label="EndDate" id="uej0lvWrv-siCIMcTND6-48">
          <mxCell style="ellipse;whiteSpace=wrap;html=1;fillColor=none;strokeColor=#FFFFFF;fontColor=#FFFFFF;" vertex="1" parent="1">
            <mxGeometry x="681" y="351" width="94" height="33" as="geometry" />
          </mxCell>
        </object>
        <object label="StartDate" id="uej0lvWrv-siCIMcTND6-49">
          <mxCell style="ellipse;whiteSpace=wrap;html=1;fillColor=none;strokeColor=#FFFFFF;fontColor=#FFFFFF;" vertex="1" parent="1">
            <mxGeometry x="617" y="414" width="94" height="33" as="geometry" />
          </mxCell>
        </object>
        <object label="Name" id="uej0lvWrv-siCIMcTND6-50">
          <mxCell style="ellipse;whiteSpace=wrap;html=1;fillColor=none;strokeColor=#FFFFFF;fontColor=#FFFFFF;" vertex="1" parent="1">
            <mxGeometry x="490" y="419" width="94" height="33" as="geometry" />
          </mxCell>
        </object>
        <mxCell id="uej0lvWrv-siCIMcTND6-53" value="1..1" style="edgeLabel;html=1;align=center;verticalAlign=middle;resizable=0;points=[];labelBackgroundColor=none;fontColor=#FFFFFF;" vertex="1" connectable="0" parent="1">
          <mxGeometry x="208.9982468178599" y="274.99692498029856" as="geometry">
            <mxPoint x="17" y="31" as="offset" />
          </mxGeometry>
        </mxCell>
        <mxCell id="uej0lvWrv-siCIMcTND6-54" value="1..1" style="edgeLabel;html=1;align=center;verticalAlign=middle;resizable=0;points=[];labelBackgroundColor=none;fontColor=#FFFFFF;" vertex="1" connectable="0" parent="1">
          <mxGeometry x="292.9982468178599" y="311.99692498029856" as="geometry">
            <mxPoint x="19" y="-8" as="offset" />
          </mxGeometry>
        </mxCell>
        <mxCell id="uej0lvWrv-siCIMcTND6-55" value="1..1" style="edgeLabel;html=1;align=center;verticalAlign=middle;resizable=0;points=[];labelBackgroundColor=none;fontColor=#FFFFFF;" vertex="1" connectable="0" parent="1">
          <mxGeometry x="422.9982468178599" y="221.99692498029856" as="geometry">
            <mxPoint x="121" y="5" as="offset" />
          </mxGeometry>
        </mxCell>
      </root>
    </mxGraphModel>
  </diagram>
</mxfile>
